<?xml version="1.0" encoding="UTF-8"?>
<svg width="36px" height="36px" viewBox="0 0 36 36" version="1.1" xmlns="http://www.w3.org/2000/svg" xmlns:xlink="http://www.w3.org/1999/xlink">
    <!-- Generator: Sketch 45.1 (43504) - http://www.bohemiancoding.com/sketch -->
    <title>audio-pause</title>
    <desc>Created with Sketch.</desc>
    <defs></defs>
    <g id="Audio-Recording-3" stroke="none" stroke-width="1" fill="none" fill-rule="evenodd">
        <path d="M9,8.991155 C9,7.89147046 9.89826062,7 10.9979131,7 L13.0020869,7 C14.1055038,7 15,7.88967395 15,8.991155 L15,27.008845 C15,28.1085295 14.1017394,29 13.0020869,29 L10.9979131,29 C9.89449617,29 9,28.1103261 9,27.008845 L9,8.991155 Z M21,8.991155 C21,7.89147046 21.8982606,7 22.9979131,7 L25.0020869,7 C26.1055038,7 27,7.88967395 27,8.991155 L27,27.008845 C27,28.1085295 26.1017394,29 25.0020869,29 L22.9979131,29 C21.8944962,29 21,28.1103261 21,27.008845 L21,8.991155 Z" id="Combined-Shape-Copy-3" fill="#FFFFFF"></path>
    </g>
</svg>